<?xml version="1.0" encoding="utf-8"?>
<!-- Generator: Adobe Illustrator 16.0.0, SVG Export Plug-In . SVG Version: 6.00 Build 0)  -->
<!DOCTYPE svg PUBLIC "-//W3C//DTD SVG 1.1//EN" "http://www.w3.org/Graphics/SVG/1.1/DTD/svg11.dtd">
<svg version="1.1" id="Layer_1" xmlns="http://www.w3.org/2000/svg" xmlns:xlink="http://www.w3.org/1999/xlink" x="0px" y="0px"
	 width="34px" height="34px" viewBox="0 0 34 34" enable-background="new 0 0 34 34" xml:space="preserve">
<circle fill="#6A4029" cx="16.8" cy="17.001" r="14.902"/>
<path fill="#FFBA33" d="M22.25,16.8c0,1.393-0.553,2.728-1.537,3.712c-0.984,0.985-2.32,1.538-3.713,1.538
	c-1.392,0-2.728-0.553-3.712-1.538c-0.985-0.984-1.538-2.319-1.538-3.712c0-0.299,0.032-0.591,0.086-0.875H10v6.995
	c0,0.486,0.394,0.88,0.88,0.88h12.241c0.234-0.001,0.457-0.093,0.622-0.259C23.908,23.377,24,23.152,24,22.92v-6.995h-1.836
	C22.219,16.208,22.25,16.501,22.25,16.8z M17,20.3c0.46,0,0.915-0.091,1.34-0.267s0.811-0.434,1.136-0.76
	c0.325-0.324,0.583-0.711,0.759-1.135c0.176-0.426,0.266-0.881,0.266-1.34c0-0.46-0.091-0.915-0.267-1.34
	c-0.177-0.425-0.435-0.811-0.759-1.135c-0.326-0.325-0.711-0.583-1.137-0.759c-0.424-0.176-0.88-0.267-1.339-0.266
	c-0.929,0-1.819,0.369-2.475,1.026c-0.657,0.657-1.025,1.547-1.025,2.476c0,0.929,0.369,1.819,1.026,2.476S16.072,20.301,17,20.3z
	 M21.2,13.125h2.099c0.139,0,0.273-0.055,0.371-0.154c0.1-0.098,0.154-0.232,0.155-0.371v-2.098c0-0.14-0.056-0.274-0.154-0.373
	c-0.099-0.099-0.233-0.154-0.372-0.154H21.2c-0.14,0-0.273,0.055-0.372,0.154c-0.1,0.099-0.154,0.232-0.154,0.373V12.6
	C20.676,12.889,20.911,13.125,21.2,13.125z M17,0C12.544,0,8.271,1.77,5.121,4.92C1.97,8.071,0.2,12.344,0.2,16.8
	c0,4.456,1.77,8.729,4.92,11.88C8.271,31.83,12.544,33.6,17,33.6c2.207,0,4.391-0.434,6.43-1.278
	c2.038-0.845,3.89-2.082,5.449-3.642c1.561-1.561,2.799-3.412,3.643-5.451c0.844-2.037,1.279-4.223,1.279-6.429
	s-0.436-4.391-1.279-6.429c-0.844-2.039-2.082-3.891-3.643-5.451c-1.56-1.56-3.411-2.797-5.449-3.642C21.391,0.435,19.207,0,17,0z
	 M25.75,23.605c0,1.069-0.875,1.944-1.944,1.944H10.194c-1.069,0-1.944-0.875-1.944-1.944V9.994c0-1.069,0.875-1.944,1.944-1.944
	h13.611c1.069,0,1.944,0.875,1.944,1.944V23.605z"/>
</svg>
