<?xml version="1.0" encoding="utf-8"?>
<!-- Generator: Adobe Illustrator 16.0.0, SVG Export Plug-In . SVG Version: 6.00 Build 0)  -->
<!DOCTYPE svg PUBLIC "-//W3C//DTD SVG 1.1//EN" "http://www.w3.org/Graphics/SVG/1.1/DTD/svg11.dtd">
<svg version="1.1" id="Layer_1" xmlns="http://www.w3.org/2000/svg" xmlns:xlink="http://www.w3.org/1999/xlink" x="0px" y="0px"
	 width="35px" height="34px" viewBox="0 0 35 34" enable-background="new 0 0 35 34" xml:space="preserve">
<circle fill="#6A4029" cx="17.8" cy="17.001" r="14.902"/>
<path fill="#FFBA33" d="M17.399,0C8.121,0,0.6,7.521,0.6,16.8s7.521,16.8,16.8,16.8s16.8-7.521,16.8-16.8S26.678,0,17.399,0z
	 M24.233,13.762c0.007,0.143,0.009,0.287,0.009,0.427c0,4.375-3.326,9.417-9.413,9.417c-1.799,0.004-3.56-0.514-5.072-1.487
	c0.257,0.032,0.521,0.044,0.79,0.044c1.55,0,2.977-0.527,4.109-1.416c-0.69-0.014-1.359-0.242-1.913-0.653
	c-0.554-0.411-0.966-0.985-1.178-1.643c0.496,0.095,1.006,0.075,1.493-0.058c-0.749-0.151-1.422-0.557-1.907-1.148
	c-0.483-0.592-0.748-1.332-0.748-2.096v-0.04c0.446,0.247,0.957,0.397,1.5,0.415c-0.702-0.467-1.199-1.185-1.389-2.007
	c-0.19-0.822-0.06-1.685,0.365-2.414c0.832,1.022,1.868,1.858,3.043,2.454c1.174,0.596,2.461,0.938,3.777,1.006
	c-0.167-0.71-0.095-1.456,0.205-2.121c0.299-0.665,0.811-1.212,1.454-1.556c0.644-0.345,1.383-0.467,2.102-0.348
	c0.721,0.119,1.381,0.472,1.879,1.005c0.74-0.146,1.45-0.418,2.1-0.803c-0.247,0.767-0.764,1.418-1.455,1.833
	c0.656-0.079,1.297-0.256,1.901-0.523C25.439,12.714,24.881,13.294,24.233,13.762z"/>
</svg>
